<svg xmlns="http://www.w3.org/2000/svg" viewBox="0 0 235.12 361.31"><defs><style>.cls-1{fill:#74cbdf;}</style></defs><title>deploy</title><g id="Layer_2" data-name="Layer 2"><g id="Capa_1" data-name="Capa 1"><path class="cls-1" d="M31.87,146.81c-.3-4.49.95-18.34-3.88-13.86A255,255,0,0,0,5.4,157.68,19.93,19.93,0,0,0,0,170.26V274.54c0,4.1,2.43,5.14,5.4,2.31L49.24,231c2.85-2.88.51-5.72-.39-7.54C40,205.61,33.95,177.78,31.87,146.81Z"/><path class="cls-1" d="M229.72,157.68A254.88,254.88,0,0,0,207.14,133c-4.83-4.49-3.58,9.36-3.88,13.86-2.08,31-8.13,58.8-17,76.69-.9,1.82-3.24,4.66-.39,7.54l43.84,45.8c3,2.83,5.4,1.78,5.4-2.32V170.26A19.91,19.91,0,0,0,229.72,157.68Z"/><path class="cls-1" d="M117.62,236.78c44,0,54.66-10.35,54.66-10.35C185,205,192.84,164.17,192.84,120.67c0-66-58-120.67-75.38-120.67S42.07,54.68,42.07,120.67c0,42.21,7.82,84.37,20.57,105.77C62.65,226.44,72.68,236.78,117.62,236.78Zm-1-179.26A38.41,38.41,0,1,1,78.24,95.94,38.42,38.42,0,0,1,116.65,57.53Z"/><path class="cls-1" d="M171.44,240.93c-1.86-7.2-2.92,6.58-54.35,6.66-51.44-.08-52.49-13.87-54.35-6.66-.36,1.41-2.11,16.79-2.65,22.35-.69,7.14-2.16,15.92-2.16,25.17,0,21.79,12.24,39.84,18.21,39.84,6.38,0,12.42-16,12.42-16,.76-1.24,1.83-1.15,2.38.19,0,0,14,48.82,25.71,48.82a4.2,4.2,0,0,0,.45-.06,4.27,4.27,0,0,0,.45.06c11.75,0,25.71-48.82,25.71-48.82.55-1.34,1.62-1.43,2.38-.19,0,0,6,16,12.42,16,6,0,18.21-18.05,18.21-39.84,0-9.25-1.47-18-2.16-25.17C173.55,257.72,171.81,242.34,171.44,240.93Z"/></g></g></svg>