<svg xmlns="http://www.w3.org/2000/svg" viewBox="0 0 389 392.7"><defs><style>.cls-1{fill:#74cbdf;}</style></defs><title>mvp</title><g id="Layer_2" data-name="Layer 2"><g id="Capa_1" data-name="Capa 1"><path class="cls-1" d="M20,83.42l36.5,16.68L225.87,19.89a3.5,3.5,0,0,0-.1-6.35L195.92.3a3.5,3.5,0,0,0-2.84,0L20,77a3.5,3.5,0,0,0,0,6.38Z"/><path class="cls-1" d="M183.84,177.26l-65-30v91.62a2.5,2.5,0,0,1-3.58,2.26L46.4,208.5A2.5,2.5,0,0,1,45,206.24V114L5,95.5a3.5,3.5,0,0,0-5,3.18V307.43a3.5,3.5,0,0,0,2,3.18l178.89,81.77a3.5,3.5,0,0,0,5-3.18V180.45A3.5,3.5,0,0,0,183.84,177.26Z"/><path class="cls-1" d="M387.39,95.74A3.5,3.5,0,0,0,384,95.5L205.17,177.26a3.5,3.5,0,0,0-2,3.18V389.2a3.5,3.5,0,0,0,5,3.18L387,310.61a3.5,3.5,0,0,0,2-3.18V98.68A3.5,3.5,0,0,0,387.39,95.74Z"/><path class="cls-1" d="M371.07,80.22A3.5,3.5,0,0,0,369,77L308.8,50.36a3.5,3.5,0,0,0-2.94,0l-173.76,83L193,162.51a3.51,3.51,0,0,0,2.91,0L369,83.42A3.49,3.49,0,0,0,371.07,80.22Z"/></g></g></svg>