<svg xmlns="http://www.w3.org/2000/svg" viewBox="0 0 487.88 467.78"><defs><style>.cls-1{fill:#74cbdf;}</style></defs><title>onsite</title><g id="Layer_2" data-name="Layer 2"><g id="Capa_1" data-name="Capa 1"><g id="_Group_" data-name="&lt;Group&gt;"><path id="_Path_" data-name="&lt;Path&gt;" class="cls-1" d="M99.64,102.57A51.29,51.29,0,1,0,48.34,51.29,51.28,51.28,0,0,0,99.64,102.57Z"/><path id="_Path_2" data-name="&lt;Path&gt;" class="cls-1" d="M136.74,356.91H35.1V199.7a17.55,17.55,0,1,0-35.1,0V450.24a17.55,17.55,0,1,0,35.1,0V392h84.09v58.23a17.55,17.55,0,1,0,35.1,0V374.46A17.54,17.54,0,0,0,136.74,356.91Z"/><path id="_Path_3" data-name="&lt;Path&gt;" class="cls-1" d="M470.33,281.5H251.16a17.55,17.55,0,1,0,0,35.1h92v116.1H314.14a17.55,17.55,0,0,0,0,35.1h93.23a17.55,17.55,0,0,0,0-35.1H378.3V316.59h92a17.55,17.55,0,1,0,0-35.1Z"/><path id="_Path_4" data-name="&lt;Path&gt;" class="cls-1" d="M193.77,290.11H153.24V247.77a31,31,0,0,1-10.8-9.35l-55.3-77.71,67.49,65.08a21.92,21.92,0,0,0,15.22,6.15h67.52a17.22,17.22,0,0,0-3.76,10.36,17.56,17.56,0,0,0,17.55,17.55h99.62a17.55,17.55,0,0,0,16.26-11l43.88-108.15a17.55,17.55,0,0,0-32.53-13.2L339,224.74H273.87A21.77,21.77,0,0,0,279.76,210a21.28,21.28,0,0,0-4.11-12.08,21.51,21.51,0,0,0-17.82-9.85H178.7l-61.09-58.94,35.2,23.18a44,44,0,0,0-43.73-39.86H90.23a44.17,44.17,0,0,0-44.16,44.17v150c0,20.89,18.35,36.19,33.64,36.19h87.74v98.71a26.32,26.32,0,1,0,52.65,0v-125A26.33,26.33,0,0,0,193.77,290.11Z"/></g></g></g></svg>