<svg xmlns="http://www.w3.org/2000/svg" xmlns:xlink="http://www.w3.org/1999/xlink" width="124.624" height="144.921" viewBox="0 0 124.624 144.921">
  <defs>
    <linearGradient id="linear-gradient" x1="0.5" y1="0.02" x2="0.5" y2="0.925" gradientUnits="objectBoundingBox">
      <stop offset="0" stop-color="#883dd9"/>
      <stop offset="0.366" stop-color="#704bcc"/>
      <stop offset="1" stop-color="#3e6ab1"/>
    </linearGradient>
    <filter id="Rectangle_3" x="5.81" y="0" width="102.697" height="144.921" filterUnits="userSpaceOnUse">
      <feOffset dx="2" dy="2" input="SourceAlpha"/>
      <feGaussianBlur stdDeviation="2.5" result="blur"/>
      <feFlood flood-opacity="0.141"/>
      <feComposite operator="in" in2="blur"/>
      <feComposite in="SourceGraphic"/>
    </filter>
    <filter id="Path_3" x="0" y="13.933" width="124.624" height="31.24" filterUnits="userSpaceOnUse">
      <feOffset dx="2" dy="2" input="SourceAlpha"/>
      <feGaussianBlur stdDeviation="2.5" result="blur-2"/>
      <feFlood flood-opacity="0.141"/>
      <feComposite operator="in" in2="blur-2"/>
      <feComposite in="SourceGraphic"/>
    </filter>
  </defs>
  <g id="Component_2_1" data-name="Component 2 – 1" transform="translate(5.5 5.5)">
    <g transform="matrix(1, 0, 0, 1, -5.5, -5.5)" filter="url(#Rectangle_3)">
      <path id="Rectangle_3-2" data-name="Rectangle 3" d="M5.359,0H82.337A5.359,5.359,0,0,1,87.7,5.359V86.073a43.848,43.848,0,0,1-43.848,43.848h0A43.848,43.848,0,0,1,0,86.073V5.359A5.359,5.359,0,0,1,5.359,0Z" transform="translate(11.31 5.5)" fill="url(#linear-gradient)"/>
    </g>
    <text id="Only_applies_to_future_Warsaw_client" data-name="Only applies to future Warsaw client" transform="translate(19.81 94.818)" fill="#fff" font-size="3.204" font-family="Montserrat-Light, Montserrat" font-weight="300"><tspan x="1.023" y="3">Only applies to future Warsaw client</tspan></text>
    <g transform="matrix(1, 0, 0, 1, -5.5, -5.5)" filter="url(#Path_3)">
      <path id="Path_3-2" data-name="Path 3" d="M444.018,74.506H342.19V58.266H444.018l7.8,8.77Z" transform="translate(-336.69 -38.83)" fill="#fff"/>
    </g>
    <text id="On_site_possible_" data-name="On site possible " transform="translate(50.17 24.933)" fill="#242424" font-size="6.821" font-family="Montserrat-Regular, Montserrat" letter-spacing="0.1em"><tspan x="-33.265" y="0">On site possible </tspan></text>
    <g id="Group_71" data-name="Group 71" transform="translate(-345.19 -30.739)">
      <g id="Component_1_1" data-name="Component 1 – 1" transform="translate(377 74.739)">
        <rect id="Rectangle_6" data-name="Rectangle 6" width="11.043" height="1.949" transform="translate(13)" fill="#fff"/>
        <g id="Layer_2" data-name="Layer 2" transform="translate(0 6.989)">
          <g id="Capa_1" data-name="Capa 1" transform="translate(0 -0.01)">
            <g id="_Group_" data-name="&lt;Group&gt;">
              <path id="_Path_" data-name="&lt;Path&gt;" d="M52.083,7.475A3.742,3.742,0,1,0,48.34,3.732a3.742,3.742,0,0,0,3.743,3.742Z" transform="translate(-44.813 0.01)" fill="#fff"/>
              <path id="_Path_2" data-name="&lt;Path&gt;" d="M9.977,194.9H2.561V183.431a1.281,1.281,0,1,0-2.561,0v18.281a1.281,1.281,0,0,0,2.561,0v-4.25H8.7v4.249a1.281,1.281,0,0,0,2.561,0v-5.529A1.28,1.28,0,0,0,9.977,194.9Z" transform="translate(0 -168.858)" fill="#fff"/>
              <path id="_Path_3" data-name="&lt;Path&gt;" d="M250.883,281.491H234.891a1.281,1.281,0,0,0,0,2.561H241.6v8.471h-2.117a1.281,1.281,0,0,0,0,2.561h6.8a1.281,1.281,0,1,0,0-2.561h-2.121v-8.472h6.713a1.281,1.281,0,0,0,0-2.561Z" transform="translate(-216.564 -260.95)" fill="#fff"/>
              <path id="_Path_4" data-name="&lt;Path&gt;" d="M56.847,125.413H53.89v-3.089a2.262,2.262,0,0,1-.788-.682l-4.035-5.67,4.925,4.749a1.6,1.6,0,0,0,1.111.449h4.927a1.256,1.256,0,0,0-.274.756,1.281,1.281,0,0,0,1.281,1.281H68.3a1.281,1.281,0,0,0,1.186-.8l3.2-7.891a1.281,1.281,0,1,0-2.374-.963l-2.874,7.1H62.692a1.588,1.588,0,0,0,.43-1.076,1.553,1.553,0,0,0-.3-.881,1.57,1.57,0,0,0-1.3-.719H55.748l-4.458-4.3,2.568,1.691a3.211,3.211,0,0,0-3.191-2.908H49.292a3.223,3.223,0,0,0-3.222,3.222v10.946a2.674,2.674,0,0,0,2.455,2.641h6.4v7.2a1.921,1.921,0,1,0,3.842,0V127.34a1.921,1.921,0,0,0-1.921-1.927Z" transform="translate(-42.708 -104.244)" fill="#fff"/>
            </g>
          </g>
        </g>
      </g>
    </g>
  </g>
</svg>
