<svg xmlns="http://www.w3.org/2000/svg" viewBox="0 0 612 600.82"><defs><style>.cls-1{fill:#74cbdf;}</style></defs><title>remote</title><g id="Layer_2" data-name="Layer 2"><g id="Capa_1" data-name="Capa 1"><path class="cls-1" d="M257.94,330.48a31.42,31.42,0,1,1-31.42-31.42A31.42,31.42,0,0,1,257.94,330.48Zm127.55-31.42a31.42,31.42,0,1,0,31.42,31.42A31.42,31.42,0,0,0,385.48,299.06ZM612,313v59.72A54.29,54.29,0,0,1,557.71,427H518.32C479.28,535.36,379.6,600.82,306,600.82S132.72,535.36,93.68,427H54.29A54.29,54.29,0,0,1,0,372.69V313a54.27,54.27,0,0,1,28.46-47.76C29,180.43,53.74,114.21,102,68.43,149.9,23,218.53,0,306,0S462.1,23,510,68.43c48.27,45.78,73,112,73.55,196.78A54.28,54.28,0,0,1,612,313ZM497.1,330.68c0-14-.71-27.09-1.77-39.81-24.09-22-67.83-38.77-123-45,7.25,8.15,13.51,18.87,17.31,33-33.81-26.64-100.18-20.3-150.38-79.9-2.88-3.33-5.37-6.51-7.52-9.42l-.08-.1h0c-8.93-12.08-12-19.26-12.15-11.31-1.47,68.51-50,121.92-104,129.46-.34,7.54-.62,15.14-.62,23.08a245.8,245.8,0,0,0,12.77,79.14C158,446.36,208,456.68,252.26,459.41c8.22-13.08,26.66-22.2,48.14-22.2,29.12,0,52.72,16.75,52.72,37.42s-23.6,37.42-52.72,37.42c-22.4,0-41.48-9.93-49.12-23.91-30.94-1.8-65-7.07-95.28-21.39,42.63,62.84,108.73,96.07,150,96.07C370.86,562.82,497.1,480.89,497.1,330.68Zm53.76-72C547.4,110.73,463,32.57,306,32.57S64.6,110.73,61.15,258.68H82c7.64-49.87,23.78-90.88,48.29-122.41C169.37,86,228.48,60.54,306,60.54S442.63,86,481.68,136.27c24.51,31.53,40.65,72.54,48.28,122.41h20.89Z"/></g></g></svg>