<svg xmlns="http://www.w3.org/2000/svg" viewBox="0 0 300.97 358.92"><defs><style>.cls-1{fill:#74cbdf;}</style></defs><title>tdd</title><g id="Layer_2" data-name="Layer 2"><g id="Capa_1" data-name="Capa 1"><path class="cls-1" d="M133,221.16l4,13.35h29.86L132.71,140.9H104.51L70.05,234.52H99l4.22-13.35Zm-14.42-48.91h.26l8.38,28.87H109.51Z"/><polygon class="cls-1" points="195.15 168.34 195.15 191.4 172.07 191.4 172.07 211.47 195.15 211.47 195.15 234.52 215.18 234.52 215.18 211.47 238.28 211.47 238.28 191.4 215.18 191.4 215.18 168.34 195.15 168.34"/><path class="cls-1" d="M150.47,307.46c64.56,0,117.05-41.61,117.05-106.13a117.17,117.17,0,0,0-117.05-117c-19.74,0-50,9.57-54.69,13.65s-3.2,13.52,5.47,9.47,31.48-12.2,49.23-12.2a106.25,106.25,0,0,1,106.14,106.1c0,58.48-47.62,95.17-106.14,95.17S44.38,259.81,44.38,201.33c0-18.57,9.75-47.46,13.21-51.16s-5.3-13.17-8.79-6.57-15.35,36.73-15.35,57.73C33.46,265.85,85.95,307.46,150.47,307.46Z"/><path class="cls-1" d="M235.5,0l-2.62.24L232.65,0H0V358.92H301V65.5ZM16.11,342.8V16.11H221.8V80.23h63.06V342.8Z"/></g></g></svg>