<svg xmlns="http://www.w3.org/2000/svg" viewBox="0 0 490.89 331.22"><defs><style>.cls-1{fill:#74cbdf;}</style></defs><title>waterfall</title><g id="Layer_2" data-name="Layer 2"><g id="Capa_1" data-name="Capa 1"><path class="cls-1" d="M477.89,305.22c-20.57,0-30.2-4.14-41.35-8.94A133.17,133.17,0,0,0,415,288.56a71.1,71.1,0,0,0-60.63-68.29L338.26,52.67H477.33a13,13,0,0,0,0-26H335.77l-1.43-14.91A13,13,0,0,0,321.4,0h-145a13,13,0,0,0-12.94,11.73L162,26.67H22a13,13,0,0,0,0,26H159.46l-17.61,180A62.93,62.93,0,0,0,118,228c-19.26,0-38.37,10.23-49.86,26.71a58.71,58.71,0,0,0-10.5,38.63c-10.59-4.24-23.56-8.13-44.65-8.13a13,13,0,0,0,0,26c20.57,0,30.2,4.14,41.35,8.94,12,5.18,25.7,11.06,51.63,11.06s39.58-5.87,51.63-11.06c11.15-4.8,20.78-8.94,41.35-8.94s30.2,4.14,41.35,8.94c12,5.18,25.7,11.06,51.63,11.06s39.58-5.87,51.63-11.06c11.15-4.8,20.79-8.94,41.35-8.94s30.2,4.14,41.35,8.94c12,5.18,25.7,11.06,51.63,11.06a13,13,0,0,0,0-26ZM328.3,221.28a71,71,0,0,0-10.53,3.24,85.49,85.49,0,0,0-23.69-11.64L285,26h24.55ZM238.74,26H259l8.85,183a85.32,85.32,0,0,0-39.31,10Zm-26,0L202.4,221.12a68.46,68.46,0,0,0-33.68,3.94L188.19,26H212.7ZM333.28,296.27c-11.15,4.8-20.79,8.94-41.35,8.94s-30.2-4.14-41.35-8.94c-12-5.18-25.7-11.06-51.62-11.06s-39.58,5.88-51.62,11.06c-11.15,4.8-20.78,8.94-41.35,8.94a103.51,103.51,0,0,1-19.6-1.65c-.06-.19-.11-.37-.18-.56-5.72-15.54-1.38-26.75,3.27-33.42C96.07,260.12,107.27,254,118,254a37,37,0,0,1,24.2,9,13,13,0,0,0,18.4-1.39,43,43,0,0,1,53.48-9.8A13,13,0,0,0,229,250.15a59.44,59.44,0,0,1,78.53-.64,13,13,0,0,0,14.78,1.56,45,45,0,0,1,66.35,34.2c-1.23,0-2.49,0-3.78,0C359,285.22,345.33,291.09,333.28,296.27Z"/></g></g></svg>