<svg xmlns="http://www.w3.org/2000/svg" xmlns:xlink="http://www.w3.org/1999/xlink" width="264.443" height="250.25" viewBox="0 0 264.443 250.25">
  <defs>
    <clipPath id="clip-path">
      <path id="Path_1" data-name="Path 1" d="M372.929,162.514l.562.434,1.29.43,7.495.4,10.214.532,15.251.795,9.451.5,11.439.6,14.683.759,6.171.334,4.971.264,1.823-.6.5-.4.7-1.293.66-.3.565.063,1.588.829.3.035.6-.132.266.064.264.293.169.368.131.362.168.3.3.2.9.1.164.233-.1.43-.165.5v.46l.465.665h.6l.628-.267.532-.131.463.23,1.627,1.392.992.632,2.122.8,1.028.863.266.4.464.926.234.365.265.167.562.165.231.135.432.63.365.9.3.995.194.959.4,2.09v1l-.4.7-.329.265-.1.269-.135.2v.466l.1.4.231.335.268.23.168.2.065.234v.23l-.1.265.036,1.328.263,1.1.365,1.024.269,1.13.232,2.354.264.926.631.927h0l.065,2.72.631,3.085,2.221,6.9,1.262,2.585.529,1.393,1.061,4.143.463,1.261.467.631.262.634.2.628.33.7.463.526.463.371.269.529-.065,1.058-.233.634-.332.529-.263.6-.034.86.23.73.793,1.029.3.631.033.328-.063.529v.269l.233,1.228v.369l-.066.263-.3.6-.066.33.033.465.1.263.1.234.067.33.265,6.6-.365,1.859-1.06,1.292-3.516,2.387-4.409,1.262-2.32,1.358-2.319,1.955-3.217,4.941-1.062,1.294-.5.762-1.227,2.516h.067l.4.334.3.424.1.566-.194.76.6.4,1.893.494.4-.165.365.366,1.622.6.566.067v.264l-.2.4.066.064.364-.132.332.132.233.233.267.033.364-.433.1.2.267.231.167.2.43-.428.1.329-.066.532-.1.165.73,1.459.5.167,1.255-.033.5.3.168.33.132.364.17.266.23.1.329.235.1.493.039.5.193.529.366,1.624.3.729-.4.3-.33.532-.5,1.192-.167.8v1.388l-.164.466.1.033h.035l.033.032v.2l-.3.167-.1.927-.3.365.4.765.5.657-.3.995-.5.5-.562.331-.432.529-.1.3-.1.465-.168.993.1.2.17.3.062.263-.232.133-.1.135.1.263.17.3.132.167-.332.428-.17.1-.23.037v.329l.3.331.034.4-.167,1.127.1.6.231.6.6.995h-.365l.331.661.4.17.364.231.1.564.033.263.17.6.4.3.464.168.364.266-.4.861.034.267L480.5,295.4l.2.495-.3.135-.2.3-.034.431.171.563-.5.2-.465.5-.364.632-.131.565.167.893.4.233h.5l.43.3,1.459,3.214.6.73,1.327.865,1.261,1.257.294.5-.431.232-.1.4.4.828.7,1.062.233.562.292,1.757v.265l-.1.333.2.17.332.131.328.23.3.431.063.33.032.367.138.53.4.662,1.791,1.657,2.187,1.225.332.53-.332.732-.8.165h-.864l-.528.235-.7-.4-.729.1-.6.466-.333.733.035.792.4.531.627.3.732.1v.267l-.329.729.365.633.73.428.7.165-.168.967.2.862.66,1.622-.6,1.062.263,1.955.167.562.135.135-.036.1-.331.466-.5.531-1.692.895-.066.5.033.8-.033.527-.131.431-.6,1.357-1.393.6-4.773.065-.891.3-.467.233-.368.365-.292.6-.368,1.16-.363.529-2.089,2.254-.762.631h0l-1.426,1.1-1.2.927-6.032,6.532-.792,1.23-.967.76-1.061,1.16L462,360.278l-1.094,1.13-.134.329-.2.828-.131.3-.234.23-.462.168-.233.167-.27.3-1.622,2.952-.428.465-.3.132-.564.132-.293.268-.2.362-.463,1.3-1.99,2.686-.662,1.558.5,1.459.165.6.17,1.724.1.464.067.233.33.563.565.594.164.3.1.633.365,3.711-.1.6-.427,1.227-.368,1.427-.428.865-.134.495.167.2.132-.1.365-.428.4.3h-.035l-.1.033.862.6.758,1.026.5.367,1.194.663.331.4v.335l-.233.795-.035.527.1.367.431.73.1.2-.3.631-.527-.23-.6-.533-.465-.229-.3-.1-.5-.7-.266-.266-.3-.033-.6.2-.96-.068-.565.068-.562-.068-.661-.429-.995-1.1-.526-.167-.566.53-.927-.432-2.056-.1-.963-.3-1.323-1.361-.565-.23-1.462.067-1.227-.369-.035-.328-.064-.267.064-.266v-.265l-.3-.332-.234-.035-.63.063h-.269l-.294-.132-.867-.566-1.852-.361-.762-.529-.165-1.294-.332-1.427-.763-1.225-.962-.894-1.426-.7-.962-.9-.5-.263-.527.1-.465.4-.366.431-.262.2-.4-.335-.89-1.357-.431-.463-.267-.065-.4.1-.2-.033-.265-.17-.5-.461-.263-.2-.5-.132-1.889.2-.862.367-.4-.132-.993.2h-.429l-2.554-.729-1.492-.8-.365-.1-.462.329-.832,1.228-.461.433-.564.1-.4-.267-.364-.4-.463-.334-.4-.033-1.062.2-.4.2-.527.6.333.365.629.365.332.6-.232.368-.5.1h-.565l-.4.1-.561.529-.865,1.261-.565.494-.627.237-.5-.1-.431-.3-.43-.466-.5-.365-.4-.063-.463.033-.6-.1-.429-.3-2.354-2.786-.4-.066-.994.17-.565-.1h-.23l-.266.167-.431.525-.3.3-.633.23-.6-.132-2.223-1.127-.4.1v.7l-1.357.069-1.094-.4h-.3l-.266.2-.1.233-.062.363-.138.564-.2.565-.134.163-2.022.2-.4.234-.565.7-.267.2-.595-.066-.068-.065-.165.2-.5,1.127-.167.462-.2.433-.331.4-.167,1.426-.265.992-.531.4-.861-.431-1.359-1.292-.73-.367-.8.1-.466.366-.891.926-.6.2-1.226-.1-.664-.229-.331-.467.1-.525,1-1.63.133-.1.165-.034.17-.1.063-.229-.033-.167-.2-.233-.032-.1-.365-.263-.1-.134v-.167l.2-.3.032-.165-.163-1.959-.136-.662-.23-.763-.232-.2-.895.362-.565.033-.562-.063-1.527-.529.069-.5-.034-.631.034-.2.132-.265h-1.061l-.563-.132-.466-.367-.131-.3-.432-1.294-.5-2.054-.332-.831-.627-.4-.2-.2-.432-.8-.3-.134-.167.065-.1.2-2.288,2.519-.2.165-.361.135-.267.032h-.8l-.5.1-.431.194-.4.365-.364.6-.431,1.328.034.033.1.131.033.2-.064.266-.132.1h-.4l-.2.795-.065.5-.2.33-.8.334-.66.132-.263-.033-.269-.131-.528-.368-.232-.1-.565.132-1.027.6-.661.065-.53-.1-.132-.466.1-1.327-.066-.6-.134-.565-.033-.6.233-.661-.763-.466-2.619-.23.1-.66-.066-.832-.365-1.722-.133-.367-.3-.694-.133-.4-.163-1.394-.1-.33-.4-.3-.4.066-.4.2-.4.037-.332-.2-.526-.631-.333-.294-.363-.1-.8-.063-.364-.233-.165-.3-.269-1.2-.627-1.291-.467-1.228v-1.1l.73-.829-.7-.361-.1-.532.065-.632-.165-.762-.4-.23-1.028.662h-.6l-1.952-1.1-1.028-.367-1.061.137h.063l.035.033.033.032.033.067-.729.63-.365.065-.529-.432-.167-.263-.167-.631-.1-.23-.3-.236-.631-.132-.365-.066-.831-.729-.4-.23-1.693-.333-.331-.4.168-.762-1.525-1.028-.8-.2.138.933.132.063.2-.063h.232l.2.3.033.4-.131.17-.864.265-1.061.034-.464.134-.762.7-.962.3-.96-.2-1.725-1.693-.3-.393-.2-.5-.167-.5-.167-.464-.3-.364-.233-.237-.063-.23.063-.231.233-.2V350.3l-.365-.065-.729-.365-.332-.1-.3.063-.233.131-.265.037-.4-.168-1.292-1.626-.066-.3.2-.4.3-.132,1.258-.032.694-.27,1.13-.662.529-.463.231-.629-.4-.763-.266-.269-.066-.394.066-.4.3-.762.065-.131v-.234l-.065-.1-.5-.663-.164-.138-.432-.164-.167.1-.065.3-.132.33-.8,1.091-.463.366-.6.165-2.353-.427-1.258.131-.762.927-.135.1-.132.036-.134-.036-.132-.1-.233-.759-.562-.464-.6.033-.3.762-.367-.268-.2-.425-.035-.53.035-.532-.134-.1-.1-.132-.1-.131-.066-.171.5-.2-.565-.23-1.229.034-.63-.165-.927-.6-.266-.268-.168-.365-.167-.529-.1-.466.066-.1-.3-.1-.8.168h-.365l-.332-.168-.631-.526-.3-.168-2.72-.765-.6.07-1.128-.7-.6-.068-.73.433v.565l.862,1.255.3.762.2.867.266.8.5.494.631.367.5.528.263.733.033.994.365.465.036.527-.168.367-.332-.132-.266-.432-.131-.231-.165-.1h-.365l-.068.1v.5l-.066.167h-.233l-.5-.167h-.233l-.294.232-.433.6-.263.23-.6.163-.529-.033-.53.067-.6.5-.466.73-.3.565-.328.464-.6.43-.827,1.125-1.061.068-1.1-.6-.894-.827-.464-.6-.233-.531-.3-1.392-.293-.76-.8-.828-.329-.6-.368-.53-.66-1.225-.365-.532-.6-.4-1.16-.427-.463-.633-.066-.366.033-.365-.033-.4-.168-.4-.232-.063h-1.393l-.294.1-.2.167-.2.036L284.3,339l-.138-.233-.329-1.062-.863-.167-.233-.729.2-.661.526.132-.033-.132-.131-.467h.164l.233-.167.135-.063.4-.33.466-.27.4-.326.2-.529.4-.135.864.231.463-.1.233-.335.527-.527.233-.433-.063.033v-.23l.032-.328.033-.2.132-.23.066-.1v-.137l-.1-.329.828-.335-.23-.795-2.254-2.388-.8-.464-.861-.2-.963-.035-.331.065-.2.431-.2.533-.329.393-.431.1-.4-.2-.828-.63-1.124-.1-1.627,1.591-1.126.2-.064-.131v-.266l.064-.131.364-.3.066-.492-.131-.566-.234-.564-.331-.665-.365-.328-.431-.066-1.557.6H273.9l-.171-.066-1.323-2.257-.069-.264-.064-.3-.663-.065-2.188.53-.263-.1-.2-.2-.365-.531-.3-.2-5.27-1.86-1.1.1-.233.3-.266.428-.3.3-.364-.134-.168-.332.033-.4.066-.429v-.4l-.331-.8-.4-.328-.464-.233-.526-.431-.266-.464-.3-.7-.233-.732-.063-.6.2-.762.23-.428.035-.4-.43-.7-.7-.328-1.623.1-.233-.634-.131-.633-.3-.165-.328.234-.231.56h0l-.1.435-.3.065-.362-.2-.332-.3-.233-.4-1.327-.3-.5-.465-.067.333-.133.2-.4.269-.134.033-.168.065-.131.1-.132.131h0l.132.467.43.329.4.6.033,1.195-.063.231-.266.3-.066.131-.033.236v.164l.033.132.032,1.459-.063.368-3.016-.231-.962.266-.562-.035v-.76l.364-.6.927-1.062,1.327-3.183,1.193-2.986.066-.466v-.795l.036-.4.131-.3.2-.194.167-.266.036-.53.033-1.061.2-1.16.365-1.127.463-.894-.1-.1-.1-.131.134-1.228-.365-.829-.6-.7-.5-.864-.065-.3-.1-.763v-.034l-.266-2.917.233-.529-.266-.6-.5-.5-.4-.332-.6-.3-1.229-.36-.6-.335h0l-.559-.4-1.724-.6-.6-.631-.132-.73.232-.828.528-.8.3-.866-.036-1.125-.267-1.063-.331-.729-1.292-1.062-.6-.7-.266-1.094-.1-1.126-.365-.5-.463-.329-.433-.661-.064-.893.33-.73,1.525-1.53.5-.657.4-.762.234-.833.1-2.618.132-.4.565-1.025.1-.4.034-.394.065-.371.2-.361.5-.6-1.725-1.292-.263-.6.164-1.124.3-.792.1-.6-.4-.6v-.262l.5-.7v-.863l-.4-.759-.729-.335-.763-.165-.893-.466-.6-.663.17-.793-.565-1.259-.633-1.889-.165-1.724,1.36-1.194.628-1.028.434-1.025-.135-.466-.5-.461.2-1,.728-1.557-.827-.663-1.558-1.854-1.593-.63-.759-1.032-.5-.23-.268-.263-.892-1.794-.4-.465-2.786-2.052-.729-.4-.862-1.025-.531-.233-.6-.037-.561-.167-.463-.361-.3-.6.7-.663.263-.529.134-.828-.063-.565-.331-1.525-.171-.43v-.267l1.294-.959,1.591-.828,1.56-1.232.8-.827.364-.795.066-.368.795-2.486-.066-.632-.167-.63-.1-.7.063-.6.2-.528.267-.4.265-.163.2-.3.7-1.357-.366-.335-.1-.23-.4-.334-.169-.264-.063-.434V213.9l-.034-.361-.732-3.419-.265-2.284-.565-.93-.264-.93-.63-1-.2-.925-.032-1,.065-1.622-.033-.432-.564-1.722-.4-.861.1-.7-.033-1.231.266-.033.463-.2.368-.333.033-.364-.463-.331.265-.167.1-.133-.1-.167-.265-.165.131-.334.266.234.364.2.332.23.3.861.365.3.73.33.529.565.3.23,1.16.2,1.426.5.5.367.4.591.861,1.662.3.4.132-.131.032-.7.135-.4.23-.268.365-.3v-.335l.036-.268-.264-.064-.7-.063-.3-.167-.828-1.99.165-1,.663-1.922.3.266.263-.066.3-.165h.4l-.2-1.126.1-.9.167-.794.1-.829h-.167l-.067.533-.194.361-.633.631.167.3-.231-.1-.2-.132-.131-.165-.135-.235.135-.133.23-.328.167-.167-.364-.76-.631-.367-2.918-.3-.4-.465.332-.862-.1-.1h0v-.033l-.066-.17-.266.428-.2.065-.231-.132-.3-.065-.233.1-.165.236-.17.3-.233.3.8.167.43.2.234.294-.135.529-.269.4-.329.134-.23-.167-.732.465-.365.132-.365.033v.3l.365.134-.033.1-.332.065-.265-.033-.4-.2-.3-.033-.431-.3-1.261-1.818-.627-.3h-.067l-.233-.7-.463-.565.266-.063.233-.167.463-1.2.428.2.3.23.8.3,2.618.2,1.062-.2,1.028-.562,1.889-1.393,6.963-3.118,6.032-1.591L259,176.861l4.739-1.262,5.208-1.425,5.1-2.319,4.247-.53,2.917-.995-.331.335-1.292.6.562.4,2.32-.4v-.3H282.3v-.331h1.262V170.4l-.036-.033h-.066l-.065-.063.035-.732-.6-.033-1.428.463.893-.463,1.1-.7,1.626-1.923-.332.658-.6.631-.233.334.233-.1.5-.1.4-.17.364-.428.927-.432.332-.4-.332-.664h-.526l-.233.267-.4.4L286.254,165l3.05-3.949v.3l-.168.428.269.1.428-.167.332-.361.167-.631-.167-.168-.365.168-.4.362.527-1.1.93-.929,1.823-1.124,5.5-.795,2.155-.862,1.128-.2.992-.362,2.52-2.787,7.957-3.745,9.978-1.892,4.476-1.524,7.066-.664H338.8l.6.236.959.828.364.2.565.133L350.3,151.9l1.657,2.155.27.494.265.7.032.633-.465.233-.132-.17-.132-.328-.166-.33-.463-.332-.333-.863-.431-.562-1.261-2.126-.263-.131-.929-.2-.234-.1-.262-.428-.73-.268-1.594-1.062-1.556-.759-.234-.368-.863-.662-.234-.1-.326.132-.17.232-.365,1.295-.033.3v.66l.132.168.63.3.132.167.332.565.365.861v.329l-.1.3v.293l.3.335-.167.895.3.362.5-.1.43-.558-.167.758.2.6.331.5.664,2.056.2.428-.1,1.032.032,1.787.165,1.692.37.765.4.131.8.6.4.13.364.033.431.132.365.27.17.4.427.633,4.442,1.426.995.066.829-.466.233.23.3.17.732.23,9.91-1.492,2.188-1.061,1.029-.233.827-.362,1.627-1.7.579-.093" fill="none"/>
    </clipPath>
  </defs>
  <g id="Group_4" data-name="Group 4" transform="translate(-462.085 -577.972)">
    <g id="Component_1_1" data-name="Component 1 – 1" transform="translate(462.21 578.097)">
      <g id="Poland" transform="translate(-228.21 -145.097)">
        <g id="Group_3" data-name="Group 3">
          <g id="Group_2" data-name="Group 2" clip-path="url(#clip-path)">
            <g id="Group_1" data-name="Group 1">
              <rect id="Rectangle_2" data-name="Rectangle 2" width="416" height="260" transform="translate(152 140)" fill="#fff"/>
              <rect id="Rectangle_3" data-name="Rectangle 3" width="416" height="130" transform="translate(152 270)" fill="#dc143c"/>
            </g>
          </g>
        </g>
        <path id="Path_2" data-name="Path 2" d="M372.929,162.514l.562.434,1.29.43,7.495.4,10.214.532,15.251.795,9.451.5,11.439.6,14.683.759,6.171.334,4.971.264,1.823-.6.5-.4.7-1.293.66-.3.565.063,1.588.829.3.035.6-.132.266.064.264.293.169.368.131.362.168.3.3.2.9.1.164.233-.1.43-.165.5v.46l.465.665h.6l.628-.267.532-.131.463.23,1.627,1.392.992.632,2.122.8,1.028.863.266.4.464.926.234.365.265.167.562.165.231.135.432.63.365.9.3.995.194.959.4,2.09v1l-.4.7-.329.265-.1.269-.135.2v.466l.1.4.231.335.268.23.168.2.065.234v.23l-.1.265.036,1.328.263,1.1.365,1.024.269,1.13.232,2.354.264.926.631.927h0l.065,2.72.631,3.085,2.221,6.9,1.262,2.585.529,1.393,1.061,4.143.463,1.261.467.631.262.634.2.628.33.7.463.526.463.371.269.529-.065,1.058-.233.634-.332.529-.263.6-.034.86.23.73.793,1.029.3.631.033.328-.063.529v.269l.233,1.228v.369l-.066.263-.3.6-.066.33.033.465.1.263.1.234.067.33.265,6.6-.365,1.859-1.06,1.292-3.516,2.387-4.409,1.262-2.32,1.358-2.319,1.955-3.217,4.941-1.062,1.294-.5.762-1.227,2.516h.067l.4.334.3.424.1.566-.194.76.6.4,1.893.494.4-.165.365.366,1.622.6.566.067v.264l-.2.4.066.064.364-.132.332.132.233.233.267.033.364-.433.1.2.267.231.167.2.43-.428.1.329-.066.532-.1.165.73,1.459.5.167,1.255-.033.5.3.168.33.132.364.17.266.23.1.329.235.1.493.039.5.193.529.366,1.624.3.729-.4.3-.33.532-.5,1.192-.167.8v1.388l-.164.466.1.033h.035l.033.032v.2l-.3.167-.1.927-.3.365.4.765.5.657-.3.995-.5.5-.562.331-.432.529-.1.3-.1.465-.168.993.1.2.17.3.062.263-.232.133-.1.135.1.263.17.3.132.167-.332.428-.17.1-.23.037v.329l.3.331.034.4-.167,1.127.1.6.231.6.6.995h-.365l.331.661.4.17.364.231.1.564.033.263.17.6.4.3.464.168.364.266-.4.861.034.267L480.5,295.4l.2.495-.3.135-.2.3-.034.431.171.563-.5.2-.465.5-.364.632-.131.565.167.893.4.233h.5l.43.3,1.459,3.214.6.73,1.327.865,1.261,1.257.294.5-.431.232-.1.4.4.828.7,1.062.233.562.292,1.757v.265l-.1.333.2.17.332.131.328.23.3.431.063.33.032.367.138.53.4.662,1.791,1.657,2.187,1.225.332.53-.332.732-.8.165h-.864l-.528.235-.7-.4-.729.1-.6.466-.333.733.035.792.4.531.627.3.732.1v.267l-.329.729.365.633.73.428.7.165-.168.967.2.862.66,1.622-.6,1.062.263,1.955.167.562.135.135-.036.1-.331.466-.5.531-1.692.895-.066.5.033.8-.033.527-.131.431-.6,1.357-1.393.6-4.773.065-.891.3-.467.233-.368.365-.292.6-.368,1.16-.363.529-2.089,2.254-.762.631h0l-1.426,1.1-1.2.927-6.032,6.532-.792,1.23-.967.76-1.061,1.16L462,360.278l-1.094,1.13-.134.329-.2.828-.131.3-.234.23-.462.168-.233.167-.27.3-1.622,2.952-.428.465-.3.132-.564.132-.293.268-.2.362-.463,1.3-1.99,2.686-.662,1.558.5,1.459.165.6.17,1.724.1.464.067.233.33.563.565.594.164.3.1.633.365,3.711-.1.6-.427,1.227-.368,1.427-.428.865-.134.495.167.2.132-.1.365-.428.4.3h-.035l-.1.033.862.6.758,1.026.5.367,1.194.663.331.4v.335l-.233.795-.035.527.1.367.431.73.1.2-.3.631-.527-.23-.6-.533-.465-.229-.3-.1-.5-.7-.266-.266-.3-.033-.6.2-.96-.068-.565.068-.562-.068-.661-.429-.995-1.1-.526-.167-.566.53-.927-.432-2.056-.1-.963-.3-1.323-1.361-.565-.23-1.462.067-1.227-.369-.035-.328-.064-.267.064-.266v-.265l-.3-.332-.234-.035-.63.063h-.269l-.294-.132-.867-.566-1.852-.361-.762-.529-.165-1.294-.332-1.427-.763-1.225-.962-.894-1.426-.7-.962-.9-.5-.263-.527.1-.465.4-.366.431-.262.2-.4-.335-.89-1.357-.431-.463-.267-.065-.4.1-.2-.033-.265-.17-.5-.461-.263-.2-.5-.132-1.889.2-.862.367-.4-.132-.993.2h-.429l-2.554-.729-1.492-.8-.365-.1-.462.329-.832,1.228-.461.433-.564.1-.4-.267-.364-.4-.463-.334-.4-.033-1.062.2-.4.2-.527.6.333.365.629.365.332.6-.232.368-.5.1h-.565l-.4.1-.561.529-.865,1.261-.565.494-.627.237-.5-.1-.431-.3-.43-.466-.5-.365-.4-.063-.463.033-.6-.1-.429-.3-2.354-2.786-.4-.066-.994.17-.565-.1h-.23l-.266.167-.431.525-.3.3-.633.23-.6-.132-2.223-1.127-.4.1v.7l-1.357.069-1.094-.4h-.3l-.266.2-.1.233-.062.363-.138.564-.2.565-.134.163-2.022.2-.4.234-.565.7-.267.2-.595-.066-.068-.065-.165.2-.5,1.127-.167.462-.2.433-.331.4-.167,1.426-.265.992-.531.4-.861-.431-1.359-1.292-.73-.367-.8.1-.466.366-.891.926-.6.2-1.226-.1-.664-.229-.331-.467.1-.525,1-1.63.133-.1.165-.034.17-.1.063-.229-.033-.167-.2-.233-.032-.1-.365-.263-.1-.134v-.167l.2-.3.032-.165-.163-1.959-.136-.662-.23-.763-.232-.2-.895.362-.565.033-.562-.063-1.527-.529.069-.5-.034-.631.034-.2.132-.265h-1.061l-.563-.132-.466-.367-.131-.3-.432-1.294-.5-2.054-.332-.831-.627-.4-.2-.2-.432-.8-.3-.134-.167.065-.1.2-2.288,2.519-.2.165-.361.135-.267.032h-.8l-.5.1-.431.194-.4.365-.364.6-.431,1.328.034.033.1.131.033.2-.064.266-.132.1h-.4l-.2.795-.065.5-.2.33-.8.334-.66.132-.263-.033-.269-.131-.528-.368-.232-.1-.565.132-1.027.6-.661.065-.53-.1-.132-.466.1-1.327-.066-.6-.134-.565-.033-.6.233-.661-.763-.466-2.619-.23.1-.66-.066-.832-.365-1.722-.133-.367-.3-.694-.133-.4-.163-1.394-.1-.33-.4-.3-.4.066-.4.2-.4.037-.332-.2-.526-.631-.333-.294-.363-.1-.8-.063-.364-.233-.165-.3-.269-1.2-.627-1.291-.467-1.228v-1.1l.73-.829-.7-.361-.1-.532.065-.632-.165-.762-.4-.23-1.028.662h-.6l-1.952-1.1-1.028-.367-1.061.137h.063l.035.033.033.032.033.067-.729.63-.365.065-.529-.432-.167-.263-.167-.631-.1-.23-.3-.236-.631-.132-.365-.066-.831-.729-.4-.23-1.693-.333-.331-.4.168-.762-1.525-1.028-.8-.2.138.933.132.063.2-.063h.232l.2.3.033.4-.131.17-.864.265-1.061.034-.464.134-.762.7-.962.3-.96-.2-1.725-1.693-.3-.393-.2-.5-.167-.5-.167-.464-.3-.364-.233-.237-.063-.23.063-.231.233-.2V350.3l-.365-.065-.729-.365-.332-.1-.3.063-.233.131-.265.037-.4-.168-1.292-1.626-.066-.3.2-.4.3-.132,1.258-.032.694-.27,1.13-.662.529-.463.231-.629-.4-.763-.266-.269-.066-.394.066-.4.3-.762.065-.131v-.234l-.065-.1-.5-.663-.164-.138-.432-.164-.167.1-.065.3-.132.33-.8,1.091-.463.366-.6.165-2.353-.427-1.258.131-.762.927-.135.1-.132.036-.134-.036-.132-.1-.233-.759-.562-.464-.6.033-.3.762-.367-.268-.2-.425-.035-.53.035-.532-.134-.1-.1-.132-.1-.131-.066-.171.5-.2-.565-.23-1.229.034-.63-.165-.927-.6-.266-.268-.168-.365-.167-.529-.1-.466.066-.1-.3-.1-.8.168h-.365l-.332-.168-.631-.526-.3-.168-2.72-.765-.6.07-1.128-.7-.6-.068-.73.433v.565l.862,1.255.3.762.2.867.266.8.5.494.631.367.5.528.263.733.033.994.365.465.036.527-.168.367-.332-.132-.266-.432-.131-.231-.165-.1h-.365l-.068.1v.5l-.066.167h-.233l-.5-.167h-.233l-.294.232-.433.6-.263.23-.6.163-.529-.033-.53.067-.6.5-.466.73-.3.565-.328.464-.6.43-.827,1.125-1.061.068-1.1-.6-.894-.827-.464-.6-.233-.531-.3-1.392-.293-.76-.8-.828-.329-.6-.368-.53-.66-1.225-.365-.532-.6-.4-1.16-.427-.463-.633-.066-.366.033-.365-.033-.4-.168-.4-.232-.063h-1.393l-.294.1-.2.167-.2.036L284.3,339l-.138-.233-.329-1.062-.863-.167-.233-.729.2-.661.526.132-.033-.132-.131-.467h.164l.233-.167.135-.063.4-.33.466-.27.4-.326.2-.529.4-.135.864.231.463-.1.233-.335.527-.527.233-.433-.063.033v-.23l.032-.328.033-.2.132-.23.066-.1v-.137l-.1-.329.828-.335-.23-.795-2.254-2.388-.8-.464-.861-.2-.963-.035-.331.065-.2.431-.2.533-.329.393-.431.1-.4-.2-.828-.63-1.124-.1-1.627,1.591-1.126.2-.064-.131v-.266l.064-.131.364-.3.066-.492-.131-.566-.234-.564-.331-.665-.365-.328-.431-.066-1.557.6H273.9l-.171-.066-1.323-2.257-.069-.264-.064-.3-.663-.065-2.188.53-.263-.1-.2-.2-.365-.531-.3-.2-5.27-1.86-1.1.1-.233.3-.266.428-.3.3-.364-.134-.168-.332.033-.4.066-.429v-.4l-.331-.8-.4-.328-.464-.233-.526-.431-.266-.464-.3-.7-.233-.732-.063-.6.2-.762.23-.428.035-.4-.43-.7-.7-.328-1.623.1-.233-.634-.131-.633-.3-.165-.328.234-.231.56h0l-.1.435-.3.065-.362-.2-.332-.3-.233-.4-1.327-.3-.5-.465-.067.333-.133.2-.4.269-.134.033-.168.065-.131.1-.132.131h0l.132.467.43.329.4.6.033,1.195-.063.231-.266.3-.066.131-.033.236v.164l.033.132.032,1.459-.063.368-3.016-.231-.962.266-.562-.035v-.76l.364-.6.927-1.062,1.327-3.183,1.193-2.986.066-.466v-.795l.036-.4.131-.3.2-.194.167-.266.036-.53.033-1.061.2-1.16.365-1.127.463-.894-.1-.1-.1-.131.134-1.228-.365-.829-.6-.7-.5-.864-.065-.3-.1-.763v-.034l-.266-2.917.233-.529-.266-.6-.5-.5-.4-.332-.6-.3-1.229-.36-.6-.335h0l-.559-.4-1.724-.6-.6-.631-.132-.73.232-.828.528-.8.3-.866-.036-1.125-.267-1.063-.331-.729-1.292-1.062-.6-.7-.266-1.094-.1-1.126-.365-.5-.463-.329-.433-.661-.064-.893.33-.73,1.525-1.53.5-.657.4-.762.234-.833.1-2.618.132-.4.565-1.025.1-.4.034-.394.065-.371.2-.361.5-.6-1.725-1.292-.263-.6.164-1.124.3-.792.1-.6-.4-.6v-.262l.5-.7v-.863l-.4-.759-.729-.335-.763-.165-.893-.466-.6-.663.17-.793-.565-1.259-.633-1.889-.165-1.724,1.36-1.194.628-1.028.434-1.025-.135-.466-.5-.461.2-1,.728-1.557-.827-.663-1.558-1.854-1.593-.63-.759-1.032-.5-.23-.268-.263-.892-1.794-.4-.465-2.786-2.052-.729-.4-.862-1.025-.531-.233-.6-.037-.561-.167-.463-.361-.3-.6.7-.663.263-.529.134-.828-.063-.565-.331-1.525-.171-.43v-.267l1.294-.959,1.591-.828,1.56-1.232.8-.827.364-.795.066-.368.795-2.486-.066-.632-.167-.63-.1-.7.063-.6.2-.528.267-.4.265-.163.2-.3.7-1.357-.366-.335-.1-.23-.4-.334-.169-.264-.063-.434V213.9l-.034-.361-.732-3.419-.265-2.284-.565-.93-.264-.93-.63-1-.2-.925-.032-1,.065-1.622-.033-.432-.564-1.722-.4-.861.1-.7-.033-1.231.266-.033.463-.2.368-.333.033-.364-.463-.331.265-.167.1-.133-.1-.167-.265-.165.131-.334.266.234.364.2.332.23.3.861.365.3.73.33.529.565.3.23,1.16.2,1.426.5.5.367.4.591.861,1.662.3.4.132-.131.032-.7.135-.4.23-.268.365-.3v-.335l.036-.268-.264-.064-.7-.063-.3-.167-.828-1.99.165-1,.663-1.922.3.266.263-.066.3-.165h.4l-.2-1.126.1-.9.167-.794.1-.829h-.167l-.067.533-.194.361-.633.631.167.3-.231-.1-.2-.132-.131-.165-.135-.235.135-.133.23-.328.167-.167-.364-.76-.631-.367-2.918-.3-.4-.465.332-.862-.1-.1h0v-.033l-.066-.17-.266.428-.2.065-.231-.132-.3-.065-.233.1-.165.236-.17.3-.233.3.8.167.43.2.234.294-.135.529-.269.4-.329.134-.23-.167-.732.465-.365.132-.365.033v.3l.365.134-.033.1-.332.065-.265-.033-.4-.2-.3-.033-.431-.3-1.261-1.818-.627-.3h-.067l-.233-.7-.463-.565.266-.063.233-.167.463-1.2.428.2.3.23.8.3,2.618.2,1.062-.2,1.028-.562,1.889-1.393,6.963-3.118,6.032-1.591L259,176.861l4.739-1.262,5.208-1.425,5.1-2.319,4.247-.53,2.917-.995-.331.335-1.292.6.562.4,2.32-.4v-.3H282.3v-.331h1.262V170.4l-.036-.033h-.066l-.065-.063.035-.732-.6-.033-1.428.463.893-.463,1.1-.7,1.626-1.923-.332.658-.6.631-.233.334.233-.1.5-.1.4-.17.364-.428.927-.432.332-.4-.332-.664h-.526l-.233.267-.4.4L286.254,165l3.05-3.949v.3l-.168.428.269.1.428-.167.332-.361.167-.631-.167-.168-.365.168-.4.362.527-1.1.93-.929,1.823-1.124,5.5-.795,2.155-.862,1.128-.2.992-.362,2.52-2.787,7.957-3.745,9.978-1.892,4.476-1.524,7.066-.664H338.8l.6.236.959.828.364.2.565.133L350.3,151.9l1.657,2.155.27.494.265.7.032.633-.465.233-.132-.17-.132-.328-.166-.33-.463-.332-.333-.863-.431-.562-1.261-2.126-.263-.131-.929-.2-.234-.1-.262-.428-.73-.268-1.594-1.062-1.556-.759-.234-.368-.863-.662-.234-.1-.326.132-.17.232-.365,1.295-.033.3v.66l.132.168.63.3.132.167.332.565.365.861v.329l-.1.3v.293l.3.335-.167.895.3.362.5-.1.43-.558-.167.758.2.6.331.5.664,2.056.2.428-.1,1.032.032,1.787.165,1.692.37.765.4.131.8.6.4.13.364.033.431.132.365.27.17.4.427.633,4.442,1.426.995.066.829-.466.233.23.3.17.732.23,9.91-1.492,2.188-1.061,1.029-.233.827-.362,1.627-1.7.579-.093" fill="none" stroke="#999" stroke-linecap="round" stroke-linejoin="round" stroke-width="0.25"/>
      </g>
      <g id="Ellipse_1" data-name="Ellipse 1" transform="translate(177.79 109.903)" stroke="#000" stroke-width="1">
        <circle cx="5" cy="5" r="5" stroke="none"/>
        <circle cx="5" cy="5" r="4.5" fill="none"/>
      </g>
      <text id="Warsaw" transform="translate(141.79 107.903)" font-size="20" font-family="Khula, sans-serif"><tspan x="0" y="0">Warsaw</tspan></text>
    </g>
  </g>
</svg>
