<svg xmlns="http://www.w3.org/2000/svg" xmlns:xlink="http://www.w3.org/1999/xlink" width="189.6" height="1409.868" viewBox="0 0 189.6 1409.868">
  <defs>
    <linearGradient id="linear-gradient" y1="0.5" x2="1" y2="0.5" gradientUnits="objectBoundingBox">
      <stop offset="0" stop-color="#ffe339"/>
      <stop offset="1" stop-color="#ff9327"/>
    </linearGradient>
    <linearGradient id="linear-gradient-2" y1="0.5" x2="1" y2="0.5" gradientUnits="objectBoundingBox">
      <stop offset="0" stop-color="#ff4b6b"/>
      <stop offset="0.995" stop-color="#ff245a"/>
    </linearGradient>
    <linearGradient id="linear-gradient-3" y1="0.5" x2="1" y2="0.5" gradientUnits="objectBoundingBox">
      <stop offset="0" stop-color="#ff8d29"/>
      <stop offset="1" stop-color="#ff6325"/>
    </linearGradient>
    <linearGradient id="linear-gradient-4" y1="0.5" x2="1" y2="0.5" gradientUnits="objectBoundingBox">
      <stop offset="0" stop-color="#00acd9"/>
      <stop offset="1" stop-color="#0070f5"/>
    </linearGradient>
    <linearGradient id="linear-gradient-5" y1="0.5" x2="1" y2="0.5" gradientUnits="objectBoundingBox">
      <stop offset="0" stop-color="#45f2a4"/>
      <stop offset="1" stop-color="#0fa49f"/>
    </linearGradient>
    <linearGradient id="linear-gradient-6" y1="0.5" x2="1" y2="0.5" gradientUnits="objectBoundingBox">
      <stop offset="0" stop-color="#cb45f2"/>
      <stop offset="1" stop-color="#7c0fa4"/>
      <stop offset="1" stop-color="#0fa49f"/>
    </linearGradient>
  </defs>
  <g id="Component_3_1" data-name="Component 3 – 1" transform="translate(1)">
    <g id="Group_21" data-name="Group 21" transform="translate(-70.282 -196)">
      <rect id="Rectangle_2" data-name="Rectangle 2" width="185.6" height="28.592" transform="translate(72.282 229.192)" fill="url(#linear-gradient)"/>
      <text id="_01" data-name="01" transform="translate(245.591 221)" fill="#fefefe" font-size="23" font-family="sans-serif"><tspan x="-12.398" y="0">01</tspan></text>
      <g id="Group_2" data-name="Group 2" transform="translate(107.665 274.692)">
        <text id="_Available_only_for_Warsaw_based_clients" data-name="
Available only for Warsaw based clients" transform="translate(0.445 22.118)" fill="#fff" font-size="11.502" font-family="sans-serif"><tspan x="0" y="12"></tspan><tspan x="0" y="25.802">Available only for </tspan><tspan x="0" y="39.605">Warsaw based clients</tspan></text>
        <text id="Onsite_Possible" data-name="Onsite Possible" fill="#c59f44" font-size="11.502" font-family="sans-serif" letter-spacing="0.1em"><tspan x="0" y="12">Onsite Possible</tspan></text>
      </g>
      <path id="Path_1" data-name="Path 1" d="M71.288,421.338V211.786H194.277" transform="translate(-0.007 -0.47)" fill="none" stroke="#fcfcfc" stroke-linecap="round" stroke-linejoin="round" stroke-width="2"/>
      <g id="Group_5" data-name="Group 5" transform="translate(145.662 369.751)">
        <g id="Group_3" data-name="Group 3">
          <ellipse id="Ellipse_1" data-name="Ellipse 1" cx="7.317" cy="7.636" rx="7.317" ry="7.636" transform="translate(2.049)" fill="#fff" stroke="#000" stroke-miterlimit="10" stroke-width="2"/>
          <path id="Path_2" data-name="Path 2" d="M99.268,425.233H80.537V411.352a9.366,9.366,0,0,1,9.365-9.366h0a9.366,9.366,0,0,1,9.366,9.366Z" transform="translate(-80.537 -387.268)" fill="#fff" stroke="#000" stroke-miterlimit="10" stroke-width="2"/>
        </g>
        <g id="Group_4" data-name="Group 4" transform="translate(19.143)">
          <ellipse id="Ellipse_2" data-name="Ellipse 2" cx="7.317" cy="7.636" rx="7.317" ry="7.636" transform="translate(2.049)" fill="#fff" stroke="#000" stroke-miterlimit="10" stroke-width="2"/>
          <path id="Rectangle_3" data-name="Rectangle 3" d="M9.365,0h0a9.366,9.366,0,0,1,9.366,9.366V23.247a0,0,0,0,1,0,0H0a0,0,0,0,1,0,0V9.365A9.365,9.365,0,0,1,9.365,0Z" transform="translate(0 14.718)" fill="#fff" stroke="#000" stroke-miterlimit="10" stroke-width="2"/>
        </g>
        <rect id="Rectangle_4" data-name="Rectangle 4" width="9.365" height="0.272" transform="translate(28.509 24.084)" fill="none" stroke="#000" stroke-miterlimit="10" stroke-width="2"/>
      </g>
    </g>
    <g id="Group_22" data-name="Group 22" transform="translate(-193.381 33.482)">
      <rect id="Rectangle_5" data-name="Rectangle 5" width="185.986" height="29.007" transform="translate(194.381 229.922)" fill="url(#linear-gradient-2)"/>
      <text id="_02" data-name="02" transform="translate(207.381 221.317)" fill="#fefefe" font-size="24.069" font-family="sans-serif"><tspan x="-12.974" y="0">02</tspan></text>
      <g id="Group_7" data-name="Group 7" transform="translate(227.948 286.055)">
        <text id="_We_work_all_around_the_globe" data-name="
We work all around the globe" transform="translate(0 23.439)" fill="#fff" font-size="11.502" font-family="SegoeUI, Segoe UI"><tspan x="0" y="12"></tspan><tspan x="0" y="25.802">We work all around </tspan><tspan x="0" y="39.605">the globe</tspan></text>
        <text id="Fully_Remote" data-name="Fully Remote" transform="translate(0)" fill="#ff4a6c" font-size="11.502" font-family="sans-serif" letter-spacing="0.1em"><tspan x="0" y="12">Fully Remote</tspan></text>
      </g>
      <path id="Path_3" data-name="Path 3" d="M317.835,424.386v-212.6H194.845" transform="translate(63.146)" fill="none" stroke="#fcfcfc" stroke-linecap="round" stroke-linejoin="round" stroke-width="2"/>
    </g>
    <g id="Group_12" data-name="Group 12" transform="translate(-320 294.482)">
      <rect id="Rectangle_6" data-name="Rectangle 6" width="186.6" height="29.007" transform="translate(321 197.922)" fill="url(#linear-gradient-3)"/>
      <text id="_03" data-name="03" transform="translate(494.183 192.317)" fill="#fefefe" font-size="24.069" font-family="sans-serif"><tspan x="-12.974" y="0">03</tspan></text>
      <g id="Group_10" data-name="Group 10" transform="translate(354.514 245.055)">
        <text id="_Agile_develop-ment_is_not_a_stranger_to_us." data-name="
Agile develop-ment is not a stranger to us." transform="translate(0.451 22.439)" fill="#fff" font-size="11.502" font-family="sans-serif"><tspan x="0" y="12"></tspan><tspan x="0" y="25.802">Agile develop-ment is </tspan><tspan x="0" y="39.605">not a stranger to us.</tspan></text>
        <text id="Agile_Friendly" data-name="Agile Friendly" fill="#ff8228" font-size="11.502" font-family="SegoeUI, Segoe UI" letter-spacing="0.1em"><tspan x="0" y="12">Agile Friendly</tspan></text>
      </g>
      <path id="Path_6" data-name="Path 6" d="M321.369,424.386v-212.6h122.99" transform="translate(0.131 -29)" fill="none" stroke="#fcfcfc" stroke-linecap="round" stroke-linejoin="round" stroke-width="2"/>
      <g id="Group_11" data-name="Group 11" transform="translate(401.519 340.693)">
        <path id="Path_7" data-name="Path 7" d="M369.828,398.97a11.048,11.048,0,0,1-5.932,9.575v8.89H350.658v-8.89a11.08,11.08,0,0,1-5.922-9.575c0-6.222,5.617-11.265,12.546-11.265S369.828,392.748,369.828,398.97Z" transform="translate(-344.736 -387.705)" fill="#fff" stroke="#fff" stroke-miterlimit="10" stroke-width="2"/>
        <line id="Line_1" data-name="Line 1" y2="13.813" transform="translate(12.546 15.916)" fill="none" stroke="#000" stroke-miterlimit="10" stroke-width="2"/>
        <path id="Path_24" data-name="Path 24" d="M0,0H14.557" transform="translate(5.267 33.513)" fill="none" stroke="#fff" stroke-width="2"/>
        <line id="Line_3" data-name="Line 3" x2="6.948" transform="translate(9.072 37.305)" fill="none" stroke="#fff" stroke-miterlimit="10" stroke-width="2"/>
      </g>
    </g>
    <g id="Group_23" data-name="Group 23" transform="translate(-449.518 503.482)">
      <rect id="Rectangle_7" data-name="Rectangle 7" width="186.118" height="29.007" transform="translate(451 229.922)" fill="url(#linear-gradient-4)"/>
      <g id="Group_13" data-name="Group 13" transform="translate(484.558 280.055)">
        <text id="_We_deliver_fast_MVP_with_highest_quality." data-name="
We deliver fast MVP with highest quality." transform="translate(0.451 22.439)" fill="#fff" font-size="11.502" font-family="sans-serif"><tspan x="0" y="12"></tspan><tspan x="0" y="25.802">We deliver fast MVP </tspan><tspan x="0" y="39.605">with highest quality.</tspan></text>
        <text id="Fast_MVP" data-name="Fast MVP" fill="#0094f9" font-size="11.502" font-family="SegoeUI, Segoe UI" letter-spacing="0.1em"><tspan x="0" y="12">Fast MVP</tspan></text>
      </g>
      <text id="_04" data-name="04" transform="translate(463.518 221.317)" fill="#fefefe" font-size="24.069" font-family="sans-serif"><tspan x="-12.974" y="0">04</tspan></text>
      <path id="Path_10" data-name="Path 10" d="M573.972,424.386v-212.6H450.982" transform="translate(63.076)" fill="none" stroke="#fcfcfc" stroke-linecap="round" stroke-linejoin="round" stroke-width="2"/>
    </g>
    <g id="Group_24" data-name="Group 24" transform="translate(-573.455 746.482)">
      <rect id="Rectangle_9" data-name="Rectangle 9" width="186.055" height="29.007" transform="translate(574.455 229.922)" fill="url(#linear-gradient-5)"/>
      <g id="Group_16" data-name="Group 16" transform="translate(588.455 274.055)">
        <text id="_We_are_testing_while_developing" data-name="
 We are testing 
while developing" transform="translate(29.733 22.439)" fill="#fff" font-size="11.502" font-family="SegoeUI, Segoe UI"><tspan x="0" y="12"></tspan><tspan x="0" y="25.802" xml:space="preserve"> We are testing </tspan><tspan x="0" y="39.605">while developing</tspan></text>
        <text id="Test_Driven_Development" data-name="Test Driven Development" transform="translate(0)" fill="#0fd1a1" font-size="11.502" font-family="sans-serif" letter-spacing="0.1em"><tspan x="0" y="12">Test Driven Development</tspan></text>
      </g>
      <g id="Group_18" data-name="Group 18" transform="translate(652.455 361)">
        <rect id="Rectangle_10" data-name="Rectangle 10" width="24.178" height="32.041" transform="translate(0 5.087)" fill="#fff" stroke="#0d0d0d" stroke-miterlimit="10" stroke-width="2"/>
        <g id="Group_17" data-name="Group 17" transform="translate(5.899)">
          <rect id="Rectangle_11" data-name="Rectangle 11" width="24.178" height="32.041" fill="#fff" stroke="#0d0d0d" stroke-miterlimit="10" stroke-width="2"/>
          <line id="Line_4" data-name="Line 4" x2="12.089" transform="translate(6.044 6.861)" fill="none" stroke="#0d0d0d" stroke-miterlimit="10" stroke-width="2"/>
          <line id="Line_5" data-name="Line 5" x2="12.089" transform="translate(6.044 21.108)" fill="none" stroke="#0d0d0d" stroke-miterlimit="10" stroke-width="2"/>
          <line id="Line_6" data-name="Line 6" x2="12.089" transform="translate(6.044 13.985)" fill="none" stroke="#0d0d0d" stroke-miterlimit="10" stroke-width="2"/>
        </g>
      </g>
      <text id="_05" data-name="05" transform="translate(746.318 216.317)" fill="#fefefe" font-size="24.069" font-family="sans-serif"><tspan x="-12.974" y="0">05</tspan></text>
      <path id="Path_11" data-name="Path 11" d="M573.455,424.387v-212.6h122.99" fill="none" stroke="#fcfcfc" stroke-linecap="round" stroke-linejoin="round" stroke-width="2"/>
    </g>
    <g id="Group_25" data-name="Group 25" transform="translate(-572.819 987.482)">
      <rect id="Rectangle_9-2" data-name="Rectangle 9" width="186.6" height="29.007" transform="translate(573.819 229.922)" fill="url(#linear-gradient-6)"/>
      <g id="Group_16-2" data-name="Group 16" transform="translate(578.819 274.055)">
        <text id="_Follow_our_progress_from_the_start." data-name="
Follow our progress from the start." transform="translate(9 22.439)" fill="#fff" font-size="11.502" font-family="sans-serif"><tspan x="0" y="12"></tspan><tspan x="0" y="25.802">Follow our progress from the </tspan><tspan x="0" y="39.605">start.</tspan></text>
        <text id="Deploy_from_day_One" data-name="Deploy from day One" transform="translate(0)" fill="#cb45f2" font-size="11.502" font-family="sans-serif" letter-spacing="0.1em"><tspan x="23.485" y="12">Deploy from day One</tspan></text>
      </g>
      <text id="_06" data-name="06" transform="translate(586.819 218.317)" fill="#fefefe" font-size="24.069" font-family="sans-serif"><tspan x="-12.974" y="0">06</tspan></text>
      <path id="Path_11-2" data-name="Path 11" d="M696.445,424.386v-212.6H573.455" transform="translate(63.695 -3)" fill="none" stroke="#fcfcfc" stroke-linecap="round" stroke-linejoin="round" stroke-width="2"/>
    </g>
    <g id="Capa_1" data-name="Capa 1" transform="translate(72 405.592)">
      <g id="_Group_" data-name="&lt;Group&gt;" transform="translate(0 0)">
        <path id="_Path_" data-name="&lt;Path&gt;" d="M52.9,9.116A4.563,4.563,0,1,0,48.34,4.553,4.563,4.563,0,0,0,52.9,9.116Z" transform="translate(-44.04 0.01)" fill="#fff"/>
        <path id="_Path_2" data-name="&lt;Path&gt;" d="M12.165,197.7H3.123V183.711a1.561,1.561,0,0,0-3.123,0V206a1.561,1.561,0,1,0,3.123,0v-5.181H10.6V206a1.561,1.561,0,0,0,3.123,0v-6.741a1.56,1.56,0,0,0-1.561-1.561Z" transform="translate(0 -165.945)" fill="#fff"/>
        <path id="_Path_3" data-name="&lt;Path&gt;" d="M254.669,281.491h-19.5a1.561,1.561,0,0,0,0,3.123h8.184v10.328h-2.582a1.561,1.561,0,1,0,0,3.123h8.294a1.561,1.561,0,0,0,0-3.123h-2.586V284.613h8.185a1.561,1.561,0,0,0,0-3.123Z" transform="translate(-212.828 -256.447)" fill="#fff"/>
        <path id="_Path_4" data-name="&lt;Path&gt;" d="M59.21,128.255H55.6v-3.767a2.758,2.758,0,0,1-.961-.832l-4.92-6.913,6,5.79a1.95,1.95,0,0,0,1.354.547h6.007a1.532,1.532,0,0,0-.334.922,1.562,1.562,0,0,0,1.561,1.561h8.862a1.561,1.561,0,0,0,1.447-.979l3.9-9.621a1.562,1.562,0,1,0-2.894-1.174l-3.5,8.651H66.336a1.937,1.937,0,0,0,.524-1.311,1.893,1.893,0,0,0-.366-1.075,1.914,1.914,0,0,0-1.585-.876h-7.04l-5.435-5.243L55.566,116a3.914,3.914,0,0,0-3.89-3.546H50a3.929,3.929,0,0,0-3.929,3.929v13.345a3.26,3.26,0,0,0,2.993,3.22h7.806v8.781a2.342,2.342,0,1,0,4.684,0V130.6a2.342,2.342,0,0,0-2.342-2.35Z" transform="translate(-41.972 -102.445)" fill="#fff"/>
      </g>
    </g>
    <g id="Capa_1-2" data-name="Capa 1" transform="translate(73 872.482)">
      <path id="Path_12" data-name="Path 12" d="M18.156,8.749,21.984,10.5,39.749,2.085a.367.367,0,0,0-.01-.666L36.607.031a.367.367,0,0,0-.3,0L18.156,8.075a.367.367,0,0,0,0,.669Z" transform="translate(-16.058 0.001)" fill="#fff"/>
      <path id="Path_13" data-name="Path 13" d="M19.282,103.773l-6.817-3.147v9.609a.262.262,0,0,1-.375.237L4.867,107.05a.262.262,0,0,1-.147-.237V97.138L.524,95.2A.367.367,0,0,0,0,95.531v21.895a.367.367,0,0,0,.21.334l18.763,8.576A.367.367,0,0,0,19.5,126V104.108a.367.367,0,0,0-.215-.335Z" transform="translate(0 -85.181)" fill="#fff"/>
      <path id="Path_14" data-name="Path 14" d="M222.492,95.232a.367.367,0,0,0-.356-.025l-18.756,8.575a.367.367,0,0,0-.21.334v21.9a.367.367,0,0,0,.524.334l18.756-8.576a.367.367,0,0,0,.21-.334V95.54A.367.367,0,0,0,222.492,95.232Z" transform="translate(-181.861 -85.19)" fill="#fff"/>
      <path id="Path_15" data-name="Path 15" d="M157.164,53.2a.367.367,0,0,0-.217-.338l-6.314-2.794a.367.367,0,0,0-.308,0L132.1,58.776l6.387,3.057a.368.368,0,0,0,.305,0l18.154-8.3A.366.366,0,0,0,157.164,53.2Z" transform="translate(-118.245 -44.788)" fill="#fff"/>
    </g>
    <g id="Layer_2" data-name="Layer 2" transform="translate(76 1345.097)">
      <g id="Capa_1-3" data-name="Capa 1" transform="translate(5 5.385)">
        <path id="Path_20" data-name="Path 20" d="M3.5,133.689c-.033-.493.1-2.014-.426-1.522a28.006,28.006,0,0,0-2.481,2.716A2.189,2.189,0,0,0,0,136.264v11.454c0,.45.267.565.593.254l4.815-5.036c.313-.316.056-.628-.043-.828A23.805,23.805,0,0,1,3.5,133.689Z" transform="translate(0 -117.563)" fill="#fff"/>
        <path id="Path_21" data-name="Path 21" d="M189.467,134.924a28,28,0,0,0-2.48-2.711c-.531-.493-.393,1.028-.426,1.522a23.786,23.786,0,0,1-1.867,8.424c-.1.2-.356.512-.043.828l4.815,5.031c.33.311.593.2.593-.255V136.306A2.187,2.187,0,0,0,189.467,134.924Z" transform="translate(-164.235 -117.605)" fill="#fff"/>
        <path id="Path_22" data-name="Path 22" d="M50.368,26.008c4.833,0,6-1.137,6-1.137,1.4-2.354,2.258-6.839,2.258-11.617C58.63,6,52.26,0,50.351,0S42.07,6.006,42.07,13.254c0,4.636.859,9.267,2.259,11.618C44.33,24.872,45.432,26.008,50.368,26.008Zm-.11-19.69a4.219,4.219,0,1,1-4.216,4.22,4.219,4.219,0,0,1,4.216-4.22Z" transform="translate(-37.449)" fill="#fff"/>
        <path id="Path_23" data-name="Path 23" d="M70.4,239.073c-.2-.791-.321.723-5.97.732-5.65-.009-5.765-1.523-5.97-.732-.04.155-.232,1.844-.291,2.455a26.843,26.843,0,0,0-.237,2.765c0,2.393,1.344,4.376,2,4.376.7,0,1.364-1.757,1.364-1.757.083-.136.2-.126.261.021,0,0,1.538,5.362,2.824,5.362l.049-.007.049.007c1.291,0,2.824-5.362,2.824-5.362.06-.147.178-.157.261-.021,0,0,.659,1.757,1.364,1.757.659,0,2-1.983,2-4.376a26.925,26.925,0,0,0-.237-2.765C70.63,240.917,70.438,239.228,70.4,239.073Z" transform="translate(-51.567 -212.61)" fill="#fff"/>
      </g>
    </g>
  </g>
</svg>
