<svg xmlns="http://www.w3.org/2000/svg" xmlns:xlink="http://www.w3.org/1999/xlink" viewBox="0 0 39.94 41.76"><defs><style>.cls-1{fill:url(#linear-gradient);}.cls-2{fill:url(#linear-gradient-2);}</style><linearGradient id="linear-gradient" x1="7.85" y1="11.93" x2="39.94" y2="11.93" gradientUnits="userSpaceOnUse"><stop offset="0" stop-color="#d3edf3"/><stop offset="1" stop-color="#74cade"/></linearGradient><linearGradient id="linear-gradient-2" x1="0" y1="29.32" x2="34.07" y2="29.32" xlink:href="#linear-gradient"/></defs><title>logo_2</title><g id="Layer_2" data-name="Layer 2"><g id="Layer_1-2" data-name="Layer 1"><path class="cls-1" d="M8.9,19.18l2.56,4.67L39.94,8.24l-2.6-4.75-.06-.1c-1.44-2.62-4-4-5.8-3.13h0L9.36,12.38h0c-1.76,1-2,3.95-.56,6.61Z"/><path class="cls-2" d="M33.07,21.55l-2.56-4.67L0,33.61l2.6,4.75.06.1c1.44,2.62,4.1,3.94,6,3h0l23.7-13h0c1.89-1.07,2.24-4.07.78-6.74Z"/></g></g></svg>